# xmcd CD database file generated by OrangeCD 5.2
#
# Track frame offsets:
#	150
#	13985
#	26157
#	43260
#	55579
#	80164
#	93488
#	104669
#	126198
#	147778
#	166073
#	184744
#	200300
#	218508
#	231332
#	249323
#	272063
#	304395
#	326042
#
# Disc length: 4702 seconds
#
# Revision: 0
# Processed by: cddbd v1.5.1PL2 Copyright (c) Steve Scherf et al.
# Submitted via: OrangeCD 5.2
#
DISCID=15125c13
DTITLE=Various Artist - Try To Remember   Volume 5
DYEAR=2006
DGENRE=Dance
TTITLE0=Young Holt Unlimited - Soulful Strut
TTITLE1=Wilson Pickett - In The Midnight Hour
TTITLE2=The Villaage People - Y.M.C.A.
TTITLE3=The Temptations - The Way You Do The Things You Do
TTITLE4=The Pointer Sisters - I Need You
TTITLE5=Martha Reeves and The Vandellas - Tears On My Pillow
TTITLE6=Martha Reeves and The Vandellas - Come And Get These Memories
TTITLE7=Aretha Franklin - Who's Zoomin' Who
TTITLE8=Babyface and Des'ree - Fire
TTITLE9=Barry White - Can't Get Enough Of Your Love
TTITLE10=Billy Ocean - Caribbean Queen
TTITLE11=Simply Red - If You Don't Know Me By Now
TTITLE12=Stevie Wonder - Superstition
TTITLE13=Otis Redding - I Can't Turn You Loose
TTITLE14=Patti LaBelle - Lady Marmalade
TTITLE15=Paul Jackson Jr. - Soulful Strut
TTITLE16=Herbie Mann - Mempis Underground
TTITLE17=B.B. King - Darlin' You Know I Love You
TTITLE18=The Temptations - For Your Love   You Send Me (Medley)
EXTD=
EXTT0=
EXTT1=
EXTT2=
EXTT3=
EXTT4=
EXTT5=
EXTT6=
EXTT7=
EXTT8=
EXTT9=
EXTT10=
EXTT11=
EXTT12=
EXTT13=
EXTT14=
EXTT15=
EXTT16=
EXTT17=
EXTT18=
PLAYORDER=
